<?xml version="1.0" encoding="utf-8"?>
<!-- Generator: Adobe Illustrator 21.1.0, SVG Export Plug-In . SVG Version: 6.00 Build 0)  -->
<svg version="1.1" id="Layer_1" xmlns="http://www.w3.org/2000/svg" xmlns:xlink="http://www.w3.org/1999/xlink" x="0px" y="0px"
	 viewBox="0 0 787.3 347.8" style="enable-background:new 0 0 787.3 347.8;" xml:space="preserve">
<style type="text/css">
	.st0{opacity:0.1;fill:#231F20;}
	.st1{fill:#6C7E7D;}
	.st2{fill:#FBFAF4;}
	.st3{opacity:0.2;fill:#231F20;}
</style>
<g>
	<ellipse class="st0" cx="393.7" cy="331.7" rx="393.7" ry="16.1"/>
	<path class="st1" d="M250.2,261.3h-37.3v71h-63.5v-71H18.7v-56.7L140,4.3h72.8v206.2h37.3V261.3z M149.4,210.5V68.4L67,210.5H149.4
		z"/>
	<path class="st1" d="M482.4,44.4c16.9,29.6,25.4,71.6,25.4,126.1c0,54.5-8.5,96.4-25.4,125.9c-16.9,29.4-46.4,44.1-88.4,44.1
		c-42,0-71.5-14.7-88.4-44.1c-16.9-29.4-25.4-71.4-25.4-125.9c0-54.5,8.5-96.5,25.4-126.1C322.5,14.8,352,0,394,0
		C436,0,465.5,14.8,482.4,44.4z M355.8,257.5c6.2,20.1,19,30.2,38.2,30.2c19.3,0,31.9-10,37.9-30.2c6-20.1,9-49.1,9-87
		c0-39.7-3-69.2-9-88.3c-6-19.1-18.6-28.7-37.9-28.7c-19.3,0-32,9.6-38.2,28.7c-6.2,19.1-9.3,48.6-9.3,88.3
		C346.4,208.4,349.5,237.4,355.8,257.5z"/>
	<path class="st1" d="M768.6,261.3h-37.3v71h-63.5v-71H537.1v-56.7L658.4,4.3h72.8v206.2h37.3V261.3z M667.8,210.5V68.4l-82.4,142.1
		H667.8z"/>
	<g>
		<g>
			<polygon class="st2" points="276.2,333.9 232.1,39.9 247.6,37.6 292,334 			"/>
		</g>
		<polygon class="st2" points="312,127.6 182.9,136.3 179.9,91.4 309,82.6 327.9,103.9 		"/>
		<polygon class="st2" points="192,151.9 320,132.7 326.7,177.2 198.7,196.4 178.1,176.7 		"/>
		<polygon class="st3" points="245.9,132.1 261.6,131 262.4,136.8 246.8,138.2 		"/>
		<polygon class="st3" points="269.8,185.8 254.3,188.1 255.2,193.7 270.8,192.2 		"/>
	</g>
</g>
</svg>
